<svg width="100" height="100" viewBox="0 0 100 100" fill="none" xmlns="http://www.w3.org/2000/svg">
<circle cx="50" cy="50" r="49.5" stroke="white"/>
<g clip-path="url(#clip0_3_153)">
<path d="M55.7128 13.4975C55.396 13.2786 54.9893 13.1416 54.4927 13.0864L52.8783 12.9105L51.4254 12.753L50.6059 20.3292L51.6829 20.4457L53.7182 20.6667C54.2496 20.7239 54.7135 20.6748 55.1119 20.5173C55.5104 20.3598 55.8272 20.1308 56.0642 19.8239C56.3013 19.5192 56.4403 19.1653 56.4832 18.7624C56.5383 18.2531 56.4321 17.799 56.1623 17.4022C55.9907 17.1485 55.7598 16.9317 55.4737 16.7517C55.6984 16.6515 55.8905 16.5267 56.0499 16.3754C56.3463 16.0911 56.5179 15.7331 56.5629 15.3015C56.6017 14.9497 56.5486 14.6143 56.4055 14.2972C56.2625 13.9802 56.0315 13.7123 55.7148 13.4914L55.7128 13.4975ZM54.1801 14.2645C54.4744 14.2972 54.7053 14.3975 54.8708 14.5693C55.0384 14.7391 55.1038 14.9804 55.0711 15.2893C55.0384 15.592 54.9239 15.8068 54.7278 15.9397C54.5316 16.0706 54.2802 16.1197 53.9716 16.087L52.5493 15.9336L52.7455 14.1111L54.178 14.2666L54.1801 14.2645ZM55.0179 18.4985C54.9852 18.7931 54.8606 19.0385 54.6399 19.2308C54.4192 19.4251 54.1372 19.5028 53.7918 19.466L52.1876 19.2921L52.4226 17.1158L54.0064 17.2876C54.2434 17.3142 54.4417 17.3858 54.6031 17.5044C54.7645 17.6231 54.879 17.7683 54.9485 17.9401C55.0179 18.1119 55.0404 18.2981 55.0179 18.4985Z" fill="white"/>
<path d="M66.6846 16.9297C66.3311 16.5554 65.8979 16.2506 65.3849 16.0174C64.8781 15.7883 64.3672 15.6636 63.8543 15.6431C63.3393 15.6247 62.8448 15.7045 62.3707 15.8865C61.8966 16.0686 61.4695 16.3324 61.0894 16.6801C60.7093 17.0279 60.4068 17.4513 60.18 17.9524C59.9532 18.4535 59.8326 18.9608 59.8203 19.4803C59.8081 19.9978 59.8898 20.4969 60.0696 20.9755C60.2495 21.4541 60.5151 21.8837 60.8687 22.2682C61.2222 22.6507 61.6514 22.9575 62.1582 23.1866C62.6568 23.4136 63.1677 23.5364 63.6867 23.5527C64.2058 23.5711 64.7003 23.4873 65.1724 23.3052C65.6445 23.1232 66.0695 22.8552 66.4517 22.5055C66.8318 22.1557 67.1363 21.7303 67.3631 21.2291C67.5899 20.7301 67.7085 20.2207 67.7228 19.7012C67.735 19.1837 67.6533 18.6867 67.4775 18.2081C67.3018 17.7315 67.0361 17.306 66.6826 16.9297H66.6846ZM66.2453 19.5764C66.2228 19.9078 66.1329 20.2432 65.9776 20.5869C65.765 21.0553 65.4871 21.4214 65.1438 21.6914C64.8005 21.9593 64.4163 22.1168 63.9953 22.1639C63.5743 22.2109 63.1431 22.1332 62.7017 21.9328C62.3789 21.7855 62.1071 21.5932 61.8884 21.3539C61.6677 21.1146 61.5063 20.8487 61.4061 20.5562C61.3039 20.2637 61.2672 19.9487 61.2937 19.6112C61.3203 19.2737 61.4123 18.9301 61.5696 18.5824C61.778 18.1222 62.056 17.7601 62.4013 17.4963C62.7467 17.2324 63.1288 17.079 63.5457 17.034C63.9626 16.989 64.3877 17.0647 64.8209 17.2631C65.1561 17.4144 65.4319 17.6088 65.6465 17.8399C65.8611 18.0731 66.0205 18.3369 66.1247 18.6335C66.2289 18.9301 66.2677 19.2451 66.2453 19.5744V19.5764Z" fill="white"/>
<path d="M70.5817 28.9608C70.9741 29.3453 71.4114 29.6337 71.8937 29.828C72.376 30.0224 72.8685 30.1144 73.3753 30.1021C73.88 30.0919 74.3725 29.9855 74.8507 29.7871C75.3289 29.5867 75.7601 29.2921 76.1422 28.8994C76.5264 28.5067 76.8125 28.069 77.0005 27.5863C77.1885 27.1036 77.2825 26.6086 77.2785 26.0993C77.2744 25.59 77.1722 25.0991 76.9678 24.6266C76.7635 24.1541 76.459 23.7204 76.0564 23.3257C75.6579 22.9371 75.2226 22.6446 74.7444 22.4502C74.2663 22.2559 73.7758 22.1639 73.267 22.1721C72.7581 22.1803 72.2677 22.2825 71.7915 22.4789C71.3154 22.6752 70.8862 22.9698 70.5041 23.3625C70.1199 23.7552 69.8338 24.1929 69.6458 24.6757C69.4578 25.1584 69.3658 25.6554 69.3719 26.1668C69.3781 26.6781 69.4823 27.1731 69.6826 27.6538C69.8849 28.1344 70.1832 28.5701 70.5817 28.9587V28.9608ZM70.9843 25.3077C71.1233 24.9988 71.3276 24.7084 71.5953 24.4343C71.9489 24.0723 72.3331 23.8268 72.7479 23.6979C73.1627 23.5691 73.5735 23.5527 73.9802 23.6529C74.3868 23.7532 74.7608 23.97 75.1021 24.3034C75.3657 24.5611 75.5578 24.8352 75.6824 25.1277C75.8051 25.4202 75.8643 25.7229 75.8602 26.0379C75.8561 26.3529 75.7867 26.6617 75.6518 26.9645C75.5169 27.2672 75.3187 27.5535 75.0571 27.8215C74.6995 28.1876 74.3112 28.4392 73.8984 28.5742C73.4836 28.7092 73.0708 28.7256 72.658 28.6274C72.2452 28.5272 71.8671 28.3083 71.5218 27.9688C71.2684 27.7213 71.0783 27.4472 70.9536 27.1465C70.8269 26.8458 70.7677 26.5411 70.7718 26.2322C70.7759 25.9234 70.8474 25.6145 70.9884 25.3056L70.9843 25.3077Z" fill="white"/>
<path d="M75.6559 35.3138L76.3629 36.6208L81.9071 33.6202L83.0617 35.7577L84.2143 35.1338L81.2021 29.554L80.0475 30.1778L81.2021 32.3132L75.6559 35.3138Z" fill="white"/>
<path d="M83.6196 39.644C83.2334 39.736 82.9309 39.871 82.7143 40.0531C82.4977 40.2331 82.3322 40.4499 82.2198 40.6974C82.1074 40.9469 82.0277 41.2067 81.9807 41.4767C81.9337 41.7467 81.8989 42.0167 81.8764 42.2867C81.854 42.5546 81.8192 42.8041 81.7743 43.0353C81.7273 43.2644 81.6496 43.4607 81.5392 43.6203C81.4289 43.7798 81.2613 43.8862 81.0365 43.9393C80.777 44.0007 80.5461 43.9393 80.3479 43.7553C80.1496 43.5712 80.0066 43.293 79.9187 42.9207C79.8206 42.5055 79.8186 42.1373 79.9085 41.8142C80.0004 41.491 80.1619 41.1842 80.3989 40.8917L79.2259 40.1656C78.8928 40.6074 78.6742 41.0655 78.57 41.5401C78.4657 42.0126 78.4841 42.5464 78.6231 43.1375C78.8234 43.9884 79.1789 44.6102 79.6898 45.003C80.2007 45.3957 80.8015 45.5102 81.4902 45.3486C81.8764 45.2586 82.1871 45.1175 82.42 44.9293C82.653 44.7411 82.8287 44.5223 82.9452 44.2768C83.0617 44.0293 83.1455 43.7716 83.1966 43.4996C83.2477 43.2275 83.2865 42.9555 83.311 42.6814C83.3355 42.4094 83.3723 42.1557 83.4173 41.9267C83.4643 41.6976 83.5338 41.5033 83.6257 41.3478C83.7197 41.1924 83.8669 41.0901 84.0712 41.043C84.3042 40.9878 84.5065 41.041 84.6802 41.2005C84.8539 41.3601 84.9806 41.6055 85.0583 41.9348C85.1257 42.2232 85.1298 42.4953 85.0726 42.751C85.0133 43.0066 84.8907 43.2705 84.7027 43.5446L85.8757 44.2707C86.1189 43.9455 86.2864 43.5569 86.3784 43.0987C86.4704 42.6405 86.4581 42.1619 86.3396 41.6546C86.2272 41.176 86.0412 40.7669 85.7837 40.4274C85.5262 40.0878 85.2136 39.8444 84.8457 39.7013C84.4779 39.5581 84.0692 39.5397 83.6196 39.644Z" fill="white"/>
<path d="M85.935 48.0813L85.8532 50.5072L79.5529 50.2924L79.5018 51.7774L85.8021 51.9921L85.7183 54.42L87.0283 54.465L87.2449 48.1263L85.935 48.0813Z" fill="white"/>
<path d="M78.8765 56.8438L78.4085 58.2429L81.4187 59.2513L81.339 59.4926L77.5584 60.7935L76.9903 62.4891L80.8363 61.0962C80.775 61.4092 80.7607 61.7078 80.7995 61.9942C80.8588 62.4094 81.01 62.7673 81.2572 63.068C81.5025 63.3687 81.8397 63.5896 82.2627 63.7307C82.6734 63.8678 83.0699 63.8923 83.45 63.8023C83.8301 63.7123 84.1693 63.5221 84.4697 63.2296C84.7701 62.9371 84.9949 62.5607 85.1502 62.1026L85.7551 60.2924L86.0984 59.2635L78.8785 56.8438H78.8765ZM84.0528 61.5851C83.9384 61.9267 83.7565 62.1598 83.5052 62.2826C83.2538 62.4053 82.9861 62.4176 82.698 62.3214C82.3955 62.2212 82.1891 62.0473 82.0767 61.8039C81.9643 61.5605 81.9664 61.2639 82.0828 60.9142L82.5161 59.6194L84.4881 60.2801L84.0508 61.5851H84.0528Z" fill="white"/>
<path d="M75.3677 65.3139L76.2137 66.5759L74.4113 69.1306L72.942 68.7502L72.0367 70.0347L80.0127 71.941L80.7116 70.949L76.2648 64.0376L75.3656 65.3119L75.3677 65.3139ZM76.9514 67.6743L78.666 70.229L75.6926 69.46L76.9535 67.6743H76.9514Z" fill="white"/>
<path d="M70.1444 71.7815L68.9816 72.6855L70.7104 74.9109L69.5047 75.8498C69.1226 76.1464 68.8385 76.492 68.6546 76.8827C68.4687 77.2734 68.3992 77.6804 68.4441 78.1038C68.4891 78.5272 68.6628 78.9322 68.9632 79.3209C69.2656 79.7095 69.6131 79.9754 70.0095 80.1206C70.406 80.2658 70.8167 80.2965 71.2397 80.2126C71.6648 80.1288 72.0674 79.9386 72.4495 79.642L73.9638 78.4638L74.818 77.7991L70.1444 71.7835V71.7815ZM71.8324 78.5968C71.6505 78.7379 71.4543 78.8279 71.2459 78.8668C71.0374 78.9056 70.8371 78.8872 70.6471 78.8115C70.455 78.7359 70.2854 78.6009 70.1342 78.4066C69.9789 78.2061 69.8889 78.0057 69.8624 77.8011C69.8358 77.5966 69.8685 77.3982 69.9564 77.2059C70.0442 77.0136 70.1812 76.8459 70.363 76.7048L71.4482 75.86L72.9175 77.752L71.8324 78.5968Z" fill="white"/>
<path d="M50.3689 79.5868L48.7013 79.5418C48.168 79.5274 47.7082 79.6133 47.324 79.8015C46.9398 79.9897 46.6414 80.2454 46.4309 80.5686C46.2204 80.8917 46.1081 81.2558 46.0978 81.6608C46.0835 82.1742 46.2266 82.616 46.527 82.9903C46.7191 83.2276 46.9643 83.426 47.2647 83.5835C47.0501 83.7021 46.8662 83.8412 46.7211 84.0048C46.4493 84.3117 46.3083 84.6819 46.2961 85.1155C46.2858 85.4694 46.3655 85.7987 46.5352 86.1034C46.7048 86.4082 46.9561 86.6577 47.2892 86.85C47.6244 87.0443 48.0392 87.1466 48.5378 87.1609L50.2626 87.208L51.6236 87.2448L51.83 79.6256L50.3689 79.5868ZM47.8962 81.0492C48.1005 80.8386 48.3764 80.7363 48.7218 80.7465L50.3341 80.7895L50.2749 82.978L48.6829 82.9351C48.4438 82.929 48.2395 82.8717 48.0699 82.7674C47.9003 82.6631 47.7736 82.526 47.6918 82.3603C47.6101 82.1947 47.5712 82.0126 47.5774 81.8101C47.5855 81.5135 47.6918 81.2599 47.8962 81.0492ZM48.0413 85.7168C47.8614 85.5594 47.7756 85.3262 47.7838 85.0153C47.7919 84.7126 47.888 84.4876 48.074 84.3403C48.2579 84.193 48.5052 84.1235 48.8158 84.1337L50.2442 84.1726L50.1952 86.0032L48.7545 85.9643C48.4581 85.9562 48.2211 85.8743 48.0413 85.7168Z" fill="white"/>
<path d="M42.3397 79.7586C42.121 79.2963 41.8206 78.8893 41.4364 78.5374C41.0523 78.1856 40.5986 77.9156 40.0754 77.7275C39.5584 77.5413 39.0414 77.4616 38.5223 77.4861C38.0033 77.5107 37.5169 77.6334 37.0612 77.8543C36.6055 78.0752 36.2029 78.3759 35.8514 78.7563C35.4999 79.1368 35.2322 79.5867 35.0462 80.1022C34.8603 80.6197 34.7826 81.1372 34.8133 81.6547C34.8439 82.1721 34.9645 82.661 35.1791 83.1212C35.3936 83.5814 35.692 83.9844 36.0762 84.3301C36.4583 84.6757 36.9161 84.9416 37.4454 85.1319C37.9685 85.32 38.4876 85.4018 39.0026 85.3793C39.5175 85.3568 40.0039 85.2362 40.4617 85.0153C40.9194 84.7964 41.324 84.4978 41.6735 84.1194C42.0229 83.741 42.2907 83.2951 42.4766 82.7776C42.6626 82.2601 42.7402 81.7426 42.7096 81.2251C42.681 80.7076 42.5563 80.2188 42.3377 79.7565L42.3397 79.7586ZM41.04 82.2642C40.8704 82.7408 40.6231 83.1233 40.3002 83.4158C39.9773 83.7062 39.6095 83.8923 39.1987 83.9701C38.788 84.0478 38.3568 84.0069 37.9093 83.8473C37.5619 83.7226 37.2717 83.5528 37.0387 83.3401C36.8057 83.1253 36.6239 82.8758 36.4972 82.5874C36.3705 82.299 36.3051 81.9901 36.301 81.6587C36.2969 81.3274 36.3582 80.9838 36.4849 80.6299C36.6586 80.1472 36.9038 79.7565 37.2247 79.462C37.5455 79.1654 37.9133 78.9772 38.3302 78.8974C38.7471 78.8156 39.1824 78.8586 39.6381 79.0202C39.9712 79.1388 40.2573 79.3086 40.4964 79.5295C40.7355 79.7504 40.9174 80.002 41.0441 80.2842C41.1687 80.5665 41.2321 80.8774 41.2341 81.2169C41.2341 81.5544 41.1728 81.9042 41.042 82.2662L41.04 82.2642Z" fill="white"/>
<path d="M32.22 73.8842C31.9789 73.4219 31.6458 73.0128 31.2187 72.6569C30.7957 72.3051 30.3379 72.0535 29.8413 71.9001C29.3447 71.7467 28.8461 71.6956 28.3434 71.7467C27.8407 71.7979 27.3584 71.9431 26.8986 72.1803C26.4388 72.4176 26.0342 72.7469 25.6827 73.1703C25.3312 73.5937 25.0819 74.0519 24.9327 74.5489C24.7835 75.046 24.7324 75.5471 24.7753 76.0523C24.8203 76.5596 24.9633 77.0402 25.2045 77.4943C25.4456 77.9484 25.7848 78.3575 26.2181 78.7175C26.6452 79.0734 27.105 79.3291 27.5954 79.4825C28.0859 79.6379 28.5845 79.689 29.0913 79.64C29.5961 79.5909 30.0784 79.4477 30.5361 79.2145C30.9939 78.9793 31.3985 78.65 31.7479 78.2286C32.0994 77.8052 32.3488 77.347 32.4979 76.85C32.6471 76.353 32.6982 75.8519 32.6512 75.3425C32.6042 74.8332 32.4612 74.3485 32.22 73.8862V73.8842ZM31.1124 76.3305C30.998 76.6496 30.8181 76.9564 30.5749 77.2509C30.2521 77.6395 29.8883 77.9157 29.4857 78.0793C29.0831 78.2429 28.6744 78.29 28.2616 78.2245C27.8488 78.157 27.4585 77.9709 27.0907 77.6661C26.8066 77.4309 26.5921 77.1711 26.447 76.8909C26.2998 76.6087 26.216 76.3121 26.1956 75.9991C26.1752 75.6862 26.2181 75.3712 26.3284 75.0582C26.4388 74.7453 26.6125 74.4446 26.8516 74.1542C27.1786 73.7594 27.5443 73.4771 27.9469 73.3094C28.3495 73.1417 28.7603 73.0905 29.1792 73.156C29.5981 73.2215 29.9946 73.4096 30.3665 73.7205C30.6383 73.9476 30.8488 74.2053 31 74.4937C31.1492 74.7821 31.235 75.0807 31.2555 75.3896C31.2759 75.6984 31.2289 76.0114 31.1165 76.3305H31.1124Z" fill="white"/>
<path d="M25.6438 66.7334L24.8346 65.4877L19.552 68.9302L18.2278 66.895L17.1304 67.6109L20.586 72.9248L21.6855 72.211L20.3612 70.1758L25.6438 66.7334Z" fill="white"/>
<path d="M18.2216 62.5853C18.4239 62.3869 18.569 62.1599 18.661 61.9021C18.753 61.6444 18.8102 61.3785 18.8367 61.1044C18.8613 60.8303 18.8756 60.5583 18.8756 60.2883C18.8756 60.0183 18.8899 59.7667 18.9164 59.5336C18.943 59.3004 19.0064 59.0999 19.1024 58.9322C19.2005 58.7645 19.3578 58.6438 19.5786 58.5722C19.832 58.4904 20.067 58.5313 20.2795 58.699C20.492 58.8647 20.6575 59.1306 20.7761 59.4947C20.9069 59.8997 20.9396 60.2679 20.8762 60.5951C20.8108 60.9244 20.6739 61.2435 20.4634 61.5544L21.6916 62.1824C21.9879 61.714 22.1677 61.2394 22.2331 60.7588C22.2985 60.2781 22.2372 59.7483 22.0492 59.1715C21.7795 58.339 21.3748 57.75 20.8333 57.4002C20.2918 57.0504 19.6848 56.987 19.0104 57.2038C18.6324 57.3266 18.334 57.4902 18.1174 57.6988C17.9008 57.9075 17.7434 58.1365 17.6474 58.3922C17.5513 58.6479 17.49 58.9117 17.4614 59.1879C17.4328 59.464 17.4165 59.7381 17.4144 60.0122C17.4124 60.2863 17.3981 60.5399 17.3695 60.7731C17.3429 61.0063 17.2877 61.2047 17.208 61.3662C17.1283 61.5299 16.9873 61.6424 16.7891 61.7078C16.5623 61.7815 16.3559 61.7467 16.1679 61.6015C15.9798 61.4562 15.8348 61.2231 15.7305 60.8999C15.6386 60.6176 15.612 60.3476 15.6508 60.0879C15.6897 59.8281 15.7898 59.554 15.9553 59.2656L14.7271 58.6377C14.5126 58.9813 14.3756 59.3842 14.3205 59.8465C14.2653 60.3088 14.3164 60.7874 14.4778 61.2824C14.6291 61.7508 14.8477 62.1435 15.1318 62.4605C15.4158 62.7776 15.7489 62.9944 16.127 63.1069C16.505 63.2194 16.9137 63.2051 17.3531 63.0619C17.7312 62.9392 18.0214 62.7796 18.2216 62.5812V62.5853Z" fill="white"/>
<path d="M14.2428 52.4155L20.5411 52.125L20.4716 50.6421L14.1754 50.9305L14.065 48.5047L12.7551 48.566L13.0453 54.9007L14.3552 54.8414L14.2428 52.4155Z" fill="white"/>
<path d="M21.0377 44.105L17.956 43.3462L18.0173 43.0987L21.6793 41.493L22.1064 39.7565L18.3892 41.4603C18.426 41.1433 18.4158 40.8446 18.3524 40.5624C18.2605 40.1533 18.0786 39.8076 17.8088 39.5294C17.5391 39.2513 17.1876 39.059 16.7523 38.9506C16.3313 38.8463 15.9349 38.8565 15.563 38.9772C15.191 39.0978 14.8682 39.3167 14.5943 39.6317C14.3205 39.9467 14.1243 40.3415 14.0099 40.8099L13.6482 42.2846L13.2967 43.7164L20.6903 45.5348L21.0418 44.103L21.0377 44.105ZM15.14 41.2373C15.2258 40.8855 15.3893 40.6401 15.6284 40.4969C15.8675 40.3558 16.1352 40.321 16.4294 40.3926C16.738 40.4683 16.9587 40.6237 17.0916 40.8569C17.2244 41.0901 17.2469 41.3867 17.159 41.7446L16.8341 43.0721L14.815 42.575L15.144 41.2373H15.14Z" fill="white"/>
<path d="M23.4879 36.8111L22.5417 35.6227L24.1296 32.931L25.6234 33.1907L26.4224 31.8367L18.3177 30.5849L17.7005 31.6301L22.6929 38.1549L23.4858 36.8111H23.4879ZM21.7182 34.5877L19.8013 32.1803L22.8278 32.706L21.7161 34.5898L21.7182 34.5877Z" fill="white"/>
<path d="M28.1697 29.9406L29.2548 28.9444L27.3523 26.8663L28.4783 25.8334C28.8338 25.5061 29.0893 25.14 29.2426 24.735C29.3958 24.33 29.4326 23.9189 29.3529 23.5016C29.2732 23.0843 29.0688 22.6937 28.7357 22.3316C28.4026 21.9696 28.0348 21.7323 27.6281 21.6198C27.2215 21.5073 26.8107 21.5094 26.3938 21.628C25.9769 21.7446 25.5907 21.9675 25.2351 22.2948L23.823 23.5916L23.024 24.3239L28.1697 29.9406ZM25.9361 23.2827C26.1057 23.1273 26.2937 23.0209 26.4981 22.9657C26.7024 22.9105 26.9027 22.9125 27.0989 22.9718C27.295 23.0312 27.4769 23.1518 27.6424 23.3339C27.8141 23.52 27.9204 23.7143 27.9612 23.9148C28.0042 24.1152 27.9878 24.3157 27.9163 24.5161C27.8448 24.7145 27.7221 24.8925 27.5525 25.0479L26.5389 25.9786L24.9204 24.2134L25.934 23.2827H25.9361Z" fill="white"/>
</g>
<defs>
<clipPath id="clip0_3_153">
<rect width="74.4898" height="74.4898" fill="white" transform="translate(12.7551 12.755)"/>
</clipPath>
</defs>
</svg>
